<svg xmlns="http://www.w3.org/2000/svg" viewBox="595 1037 405 405">
  <path fill="#ed3b8b" d="M 797.651733 1341.061035 L 797.651733 1341.144409 C 797.651733 1369.10376 786.317993 1394.396362 767.984009 1412.730347 C 749.608398 1431.105957 724.357483 1442.439697 696.356506 1442.439697 L 595.061218 1442.439697 C 595.061218 1442.439697 595.144531 1396.187988 595.227844 1334.935913 C 596.769592 1309.434937 607.728333 1286.434082 624.687256 1269.47522 C 643.02124 1251.099487 668.397156 1239.765869 696.356506 1239.765869 C 752.275146 1239.765869 797.610107 1285.100708 797.651733 1341.061035"></path>
  <path fill="#f05a25" d="M 1000.32605 1037.175293 L 1000.32605 1138.470581 C 1000.32605 1166.471558 988.950684 1191.764038 970.575012 1210.139771 C 952.282654 1228.432129 926.948425 1239.765747 898.947449 1239.765747 C 842.987122 1239.765747 797.652161 1194.38916 797.652161 1138.470581 C 797.652161 1110.51123 808.985901 1085.177002 827.319885 1066.80127 C 845.612183 1048.509033 871.029785 1037.175293 898.947449 1037.175293 Z"></path>
  <path fill="#7cc142" d="M 797.651733 1138.470581 C 797.651733 1166.471558 786.317993 1191.805786 767.984009 1210.139771 C 749.608398 1228.432129 724.357483 1239.765747 696.356506 1239.765747 C 643.187927 1239.765747 599.644714 1198.889404 595.436218 1146.804199 C 595.436218 1084.718628 595.311218 1037.466919 595.061218 1037.175293 L 696.356506 1037.175293 C 752.275146 1037.175293 797.651733 1082.55188 797.651733 1138.470581"></path>
  <path fill="#3d4ef0" d="M 1000.32605 1341.061035 L 1000.32605 1442.439697 L 898.947449 1442.439697 C 842.987122 1442.439697 797.693848 1397.104736 797.652161 1341.144409 L 797.652161 1341.061035 C 797.652161 1313.101807 808.985901 1287.809204 827.319885 1269.47522 C 845.612183 1251.099487 871.029785 1239.765869 898.947449 1239.765869 C 954.949463 1239.765869 1000.32605 1285.142456 1000.32605 1341.061035"></path>
  <path fill="none" stroke="#ffffff" stroke-width="4.825172" d="M 986.626831 1138.517578 L 986.626831 1050.843628 L 898.952881 1050.843628"></path>
  <path fill="none" stroke="#ffffff" stroke-width="4.825172" d="M 898.954102 1226.093628 C 850.635742 1226.093628 811.330139 1186.783936 811.330139 1138.469727"></path>
  <path fill="none" stroke="#ffffff" stroke-width="4.825172" d="M 608.695862 1138.517578 L 608.695862 1050.843628 L 696.369812 1050.843628"></path>
  <path fill="none" stroke="#ffffff" stroke-width="4.825172" d="M 696.368591 1226.093628 C 744.686951 1226.093628 783.992493 1186.783936 783.992493 1138.469727"></path>
  <path fill="none" stroke="#ffffff" stroke-width="4.825172" d="M 986.626831 1341.48938 L 986.626831 1429.16333 L 898.952881 1429.16333"></path>
  <path fill="none" stroke="#ffffff" stroke-width="4.825172" d="M 898.954102 1253.913452 C 850.635742 1253.913452 811.330139 1293.223145 811.330139 1341.537354"></path>
  <path fill="none" stroke="#ffffff" stroke-width="4.825172" d="M 608.695862 1341.48938 L 608.695862 1429.16333 L 696.369812 1429.16333"></path>
  <path fill="none" stroke="#ffffff" stroke-width="4.825172" d="M 696.368591 1253.913452 C 744.686951 1253.913452 783.992493 1293.223145 783.992493 1341.537354"></path>
</svg>