<?xml version="1.0"?>

<svg viewBox="595 1037 2310 410" xmlns="http://www.w3.org/2000/svg">
    <path id="Color-Fill" fill="#ffffff" stroke="none" d="M 0 0 L 3507 0 L 3507 2480 L 0 2480 Z"></path>
    <path id="Path" fill="#ed3b8b" stroke="none" d="M 797.651733 1341.061035 L 797.651733 1341.144409 C 797.651733 1369.10376 786.317993 1394.396362 767.984009 1412.730347 C 749.608398 1431.105957 724.357483 1442.439697 696.356506 1442.439697 L 595.061218 1442.439697 C 595.061218 1442.439697 595.144531 1396.187988 595.227844 1334.935913 C 596.769592 1309.434937 607.728333 1286.434082 624.687256 1269.47522 C 643.02124 1251.099487 668.397156 1239.765869 696.356506 1239.765869 C 752.275146 1239.765869 797.610107 1285.100708 797.651733 1341.061035"></path>
    <path id="path1" fill="#f05a25" stroke="none" d="M 1000.32605 1037.175293 L 1000.32605 1138.470581 C 1000.32605 1166.471558 988.950684 1191.764038 970.575012 1210.139771 C 952.282654 1228.432129 926.948425 1239.765747 898.947449 1239.765747 C 842.987122 1239.765747 797.652161 1194.38916 797.652161 1138.470581 C 797.652161 1110.51123 808.985901 1085.177002 827.319885 1066.80127 C 845.612183 1048.509033 871.029785 1037.175293 898.947449 1037.175293 Z"></path>
    <path id="path2" fill="#7cc142" stroke="none" d="M 797.651733 1138.470581 C 797.651733 1166.471558 786.317993 1191.805786 767.984009 1210.139771 C 749.608398 1228.432129 724.357483 1239.765747 696.356506 1239.765747 C 643.187927 1239.765747 599.644714 1198.889404 595.436218 1146.804199 C 595.436218 1084.718628 595.311218 1037.466919 595.061218 1037.175293 L 696.356506 1037.175293 C 752.275146 1037.175293 797.651733 1082.55188 797.651733 1138.470581"></path>
    <path id="path3" fill="#3d4ef0" stroke="none" d="M 1000.32605 1341.061035 L 1000.32605 1442.439697 L 898.947449 1442.439697 C 842.987122 1442.439697 797.693848 1397.104736 797.652161 1341.144409 L 797.652161 1341.061035 C 797.652161 1313.101807 808.985901 1287.809204 827.319885 1269.47522 C 845.612183 1251.099487 871.029785 1239.765869 898.947449 1239.765869 C 954.949463 1239.765869 1000.32605 1285.142456 1000.32605 1341.061035"></path>
    <path id="path4" fill="none" stroke="#ffffff" stroke-width="4.825172" d="M 986.626831 1138.517578 L 986.626831 1050.843628 L 898.952881 1050.843628"></path>
    <path id="path5" fill="none" stroke="#ffffff" stroke-width="4.825172" d="M 898.954102 1226.093628 C 850.635742 1226.093628 811.330139 1186.783936 811.330139 1138.469727"></path>
    <path id="path6" fill="none" stroke="#ffffff" stroke-width="4.825172" d="M 608.695862 1138.517578 L 608.695862 1050.843628 L 696.369812 1050.843628"></path>
    <path id="path7" fill="none" stroke="#ffffff" stroke-width="4.825172" d="M 696.368591 1226.093628 C 744.686951 1226.093628 783.992493 1186.783936 783.992493 1138.469727"></path>
    <path id="path8" fill="none" stroke="#ffffff" stroke-width="4.825172" d="M 986.626831 1341.48938 L 986.626831 1429.16333 L 898.952881 1429.16333"></path>
    <path id="path9" fill="none" stroke="#ffffff" stroke-width="4.825172" d="M 898.954102 1253.913452 C 850.635742 1253.913452 811.330139 1293.223145 811.330139 1341.537354"></path>
    <path id="path10" fill="none" stroke="#ffffff" stroke-width="4.825172" d="M 608.695862 1341.48938 L 608.695862 1429.16333 L 696.369812 1429.16333"></path>
    <path id="path11" fill="none" stroke="#ffffff" stroke-width="4.825172" d="M 696.368591 1253.913452 C 744.686951 1253.913452 783.992493 1293.223145 783.992493 1341.537354"></path>
    <path id="path12" fill="#3d4ef0" stroke="none" d="M 1271.510742 1246.549805 L 1271.510742 1245.995605 C 1271.510742 1217.57373 1252.289185 1198.906494 1229.442505 1198.906494 C 1206.595947 1198.906494 1186.536865 1217.852905 1186.536865 1245.995605 L 1186.536865 1246.549805 C 1186.536865 1274.688354 1206.595947 1293.634766 1229.442505 1293.634766 C 1252.564209 1293.634766 1271.510742 1275.525879 1271.510742 1246.549805 M 1153.660645 1131.762329 C 1153.660645 1122.29126 1160.902588 1115.045166 1170.37793 1115.045166 C 1179.849121 1115.045166 1187.37439 1122.29126 1187.37439 1131.762329 L 1187.37439 1197.239746 C 1198.237305 1181.914185 1213.562866 1169.655396 1237.521973 1169.655396 C 1272.073242 1169.655396 1305.782837 1196.960571 1305.782837 1245.995605 L 1305.782837 1246.549805 C 1305.782837 1295.309814 1272.348267 1322.890015 1237.521973 1322.890015 C 1213.004517 1322.890015 1197.678955 1310.631226 1187.37439 1296.980713 L 1187.37439 1304.501831 C 1187.37439 1313.693848 1179.849121 1321.219116 1170.37793 1321.219116 C 1161.181763 1321.219116 1153.660645 1313.693848 1153.660645 1304.501831 Z"></path>
    <path id="path13" fill="#3d4ef0" stroke="none" d="M 1669.564941 1305.058105 C 1665.94397 1303.108032 1663.160522 1298.928711 1663.160522 1293.357666 C 1663.160522 1285.83667 1669.010742 1279.707275 1676.811035 1279.707275 C 1679.598633 1279.707275 1682.107056 1280.540649 1684.057129 1281.657349 C 1698.265991 1291.128418 1713.033081 1295.861938 1726.404419 1295.861938 C 1740.888306 1295.861938 1749.251099 1289.736694 1749.251099 1279.9823 L 1749.251099 1279.428101 C 1749.251099 1268.002686 1733.646362 1264.102539 1716.374878 1258.810669 C 1694.64502 1252.681274 1670.402466 1243.764282 1670.402466 1215.625732 L 1670.402466 1215.067383 C 1670.402466 1187.20813 1693.52832 1170.21167 1722.779297 1170.21167 C 1738.384033 1170.21167 1754.822144 1174.670166 1769.031006 1182.191284 C 1773.768677 1184.699707 1777.114624 1189.158203 1777.114624 1195.008423 C 1777.114624 1202.808716 1770.985229 1208.658813 1763.180786 1208.658813 C 1760.397339 1208.658813 1758.71814 1208.100464 1756.493042 1206.987915 C 1744.513428 1200.858643 1732.254639 1196.958496 1721.945923 1196.958496 C 1708.85376 1196.958496 1701.328491 1203.087891 1701.328491 1211.446411 L 1701.328491 1212.00061 C 1701.328491 1222.867676 1717.212402 1227.326172 1734.483887 1232.901367 C 1755.938843 1239.584961 1780.177124 1249.335327 1780.177124 1275.802979 L 1780.177124 1276.361328 C 1780.177124 1307.287354 1756.213867 1322.608765 1725.566895 1322.608765 C 1706.903687 1322.608765 1686.565552 1316.762695 1669.564941 1305.058105"></path>
    <path id="path14" fill="#3d4ef0" stroke="none" d="M 1817.413452 1279.148071 L 1817.413452 1201.695313 L 1811.838257 1201.695313 C 1803.763062 1201.695313 1797.354492 1195.286743 1797.354492 1187.207275 C 1797.354492 1179.127808 1803.763062 1172.719238 1811.838257 1172.719238 L 1817.413452 1172.719238 L 1817.413452 1147.643311 C 1817.413452 1138.451416 1824.93457 1130.926147 1834.405762 1130.926147 C 1843.601929 1130.926147 1851.123047 1138.451416 1851.123047 1147.643311 L 1851.123047 1172.719238 L 1877.590698 1172.719238 C 1885.670166 1172.719238 1892.357788 1179.127808 1892.357788 1187.207275 C 1892.357788 1195.286743 1885.670166 1201.695313 1877.590698 1201.695313 L 1851.123047 1201.695313 L 1851.123047 1273.852051 C 1851.123047 1286.948364 1857.810791 1292.244385 1869.236206 1292.244385 C 1873.136353 1292.244385 1876.478149 1291.40686 1877.590698 1291.40686 C 1885.115967 1291.40686 1891.803711 1297.536255 1891.803711 1305.336426 C 1891.803711 1311.46582 1887.62439 1316.482666 1882.886719 1318.432739 C 1875.644775 1320.941162 1868.677856 1322.332886 1859.760864 1322.332886 C 1834.968262 1322.332886 1817.413452 1311.46582 1817.413452 1279.148071"></path>
    <path id="path15" fill="#3d4ef0" stroke="none" d="M 1917.702026 1188.043579 C 1917.702026 1178.572388 1924.94397 1171.047119 1934.419312 1171.047119 C 1943.890503 1171.047119 1951.415771 1178.572388 1951.415771 1188.043579 L 1951.415771 1304.501831 C 1951.415771 1313.973022 1943.890503 1321.219116 1934.419312 1321.219116 C 1925.227295 1321.219116 1917.702026 1313.973022 1917.702026 1304.501831 Z M 1915.193604 1133.158203 C 1915.193604 1123.124512 1923.552246 1116.720215 1934.419312 1116.720215 C 1945.286377 1116.720215 1953.64502 1123.124512 1953.64502 1133.158203 L 1953.64502 1134.829102 C 1953.64502 1144.858643 1945.286377 1151.546387 1934.419312 1151.546387 C 1923.552246 1151.546387 1915.193604 1144.858643 1915.193604 1134.829102 Z"></path>
    <path id="path16" fill="#3d4ef0" stroke="none" d="M 1996.708618 1201.693604 L 1990.858398 1201.693604 C 1983.062378 1201.693604 1976.649658 1195.564209 1976.649658 1187.763916 C 1976.649658 1179.963623 1983.062378 1173.555176 1990.858398 1173.555176 L 1996.708618 1173.555176 L 1996.708618 1162.68811 C 1996.708618 1146.529175 2000.89209 1134.270386 2008.688232 1126.470093 C 2016.492676 1118.6698 2027.355591 1114.769653 2041.843628 1114.769653 C 2048.5354 1114.769653 2054.102295 1115.323853 2058.840088 1116.161377 C 2064.969482 1116.998901 2070.540527 1122.569946 2070.540527 1130.091064 C 2070.540527 1137.891357 2064.135986 1144.299927 2056.331543 1144.020752 C 2054.385742 1143.745728 2051.593994 1143.466553 2049.368896 1143.466553 C 2036.555908 1143.466553 2029.864014 1150.429321 2029.864014 1165.754883 L 2029.864014 1173.834351 L 2056.05249 1173.834351 C 2064.135986 1173.834351 2070.26123 1179.963623 2070.26123 1187.763916 C 2070.26123 1195.564209 2063.856934 1201.693604 2056.05249 1201.693604 L 2030.422363 1201.693604 L 2030.422363 1304.501465 C 2030.422363 1313.693481 2022.897095 1321.21875 2013.425903 1321.21875 C 2004.233887 1321.21875 1996.708618 1313.693481 1996.708618 1304.501465 Z"></path>
    <path id="path17" fill="#3d4ef0" stroke="none" d="M 2099.088623 1361.060181 C 2094.075928 1359.389282 2088.500732 1355.209961 2088.500732 1347.130493 C 2088.500732 1338.771851 2094.905029 1333.196655 2102.151123 1333.196655 C 2104.938721 1333.196655 2106.609619 1333.755005 2108.280518 1334.313354 C 2112.184814 1335.425903 2115.247559 1336.263428 2119.985107 1336.263428 C 2130.014648 1336.263428 2135.302246 1332.084106 2140.877441 1320.662842 L 2141.994141 1317.596069 L 2087.384033 1195.566772 C 2086.271484 1193.05835 2085.437988 1189.712402 2085.437988 1187.487305 C 2085.437988 1178.011963 2092.679932 1171.045044 2102.151123 1171.045044 C 2110.793213 1171.045044 2115.526611 1176.06189 2118.589355 1183.862183 L 2158.153076 1281.657349 L 2194.929443 1183.862183 C 2197.717041 1176.899414 2202.454834 1171.045044 2211.088379 1171.045044 C 2220.005371 1171.045044 2227.251465 1178.011963 2227.251465 1186.928955 C 2227.251465 1189.712402 2226.413818 1193.337524 2225.855469 1195.008423 L 2172.082764 1324.004639 C 2159.549072 1354.093262 2146.173584 1365.239502 2122.489502 1365.239502 C 2113.018311 1365.239502 2106.05542 1363.843506 2099.088623 1361.060181"></path>
    <path id="path18" fill="#3d4ef0" stroke="none" d="M 1638.888428 1250.773682 C 1636.655029 1290.954346 1602.432983 1323.138794 1562.173218 1322.942993 C 1532.226318 1322.784546 1506.350342 1305.458984 1493.924927 1280.291382 C 1502.275146 1272.374512 1513.917236 1261.669922 1522.267578 1253.790527 L 1522.267578 1253.832153 C 1524.030151 1263.08252 1528.813599 1271.236938 1535.555542 1277.233032 C 1543.093262 1283.887329 1553.356201 1288.270874 1563.506592 1287.895874 C 1586.674072 1287.895874 1605.449707 1269.120239 1605.449707 1245.911011 C 1605.508057 1232.110474 1598.303589 1218.455933 1586.674072 1210.984741 C 1585.928223 1210.47644 1585.182373 1210.005615 1584.398926 1209.576416 C 1574.690308 1203.86792 1562.343994 1202.392822 1551.552002 1205.692871 C 1544.064209 1208.243042 1537.438965 1212.868164 1531.951294 1218.630859 C 1530.780396 1219.922607 1529.459473 1221.197632 1528.305298 1222.510132 C 1515.092285 1236.464844 1501.921021 1250.344482 1488.749756 1264.33667 C 1488.595581 1264.494995 1488.437256 1264.690918 1488.278809 1264.845093 L 1481.382813 1272.099487 L 1458.723633 1295.971191 C 1457.115234 1297.812866 1455.431885 1299.617065 1453.627686 1301.304688 L 1452.960938 1302.008911 L 1452.923462 1301.971313 C 1439.239624 1314.709351 1420.97229 1322.588745 1400.784058 1322.588745 C 1357.078369 1322.588745 1321.993774 1285.9375 1324.422974 1241.756714 C 1326.656494 1201.576172 1360.87854 1169.395752 1401.138306 1169.591675 C 1431.089355 1169.74585 1456.96106 1187.071411 1469.386475 1212.239014 C 1461.036255 1220.160156 1449.394165 1230.860474 1441.043823 1238.73999 L 1441.043823 1238.698242 C 1439.28125 1229.447998 1434.497803 1221.293457 1427.755859 1215.297485 C 1420.21814 1208.647217 1409.9552 1204.259521 1399.804932 1204.634521 C 1376.637329 1204.634521 1357.861694 1223.410278 1357.861694 1246.619385 C 1357.807495 1260.424072 1365.007813 1274.074585 1376.637329 1281.545654 C 1377.383301 1282.053955 1378.12915 1282.52478 1378.912476 1282.95813 C 1388.621094 1288.662598 1400.971558 1290.137573 1411.763672 1286.837524 C 1419.251465 1284.291504 1425.872437 1279.666382 1431.360229 1273.903687 C 1432.531006 1272.607788 1433.856079 1271.332764 1435.006104 1270.020264 C 1448.219116 1256.065552 1461.390381 1242.190063 1474.561768 1228.193726 L 1481.928589 1220.430908 L 1504.587769 1196.559326 C 1506.196167 1194.717529 1507.879517 1192.91333 1509.683838 1191.229858 L 1510.350464 1190.521606 L 1510.387939 1190.563232 C 1524.071777 1177.821045 1542.339111 1169.94165 1562.527344 1169.94165 C 1606.233032 1169.94165 1641.317627 1206.597168 1638.888428 1250.773682"></path>
    <path id="path19" fill="#7cc142" stroke="none" d="M 2281.197021 1307.361938 L 2241.637451 1195.362183 C 2240.799805 1193.128784 2239.966553 1189.507813 2239.966553 1186.724365 C 2239.966553 1178.644897 2246.375 1171.119629 2256.404541 1171.119629 C 2264.763184 1171.119629 2270.334229 1176.694824 2272.838379 1184.495117 L 2301.256104 1273.648315 L 2329.953125 1184.495117 C 2332.465576 1176.694824 2338.594971 1171.119629 2347.23291 1171.119629 L 2349.178711 1171.119629 C 2357.820801 1171.119629 2363.945801 1176.694824 2366.454346 1184.495117 L 2395.43042 1273.648315 L 2424.127197 1184.215942 C 2426.356445 1176.973999 2431.648193 1171.119629 2440.565186 1171.119629 C 2449.757324 1171.119629 2456.449219 1178.365723 2456.449219 1186.724365 C 2456.449219 1189.228638 2455.607422 1192.574585 2455.053223 1194.245483 L 2414.935303 1307.361938 C 2411.314209 1317.670654 2404.347412 1322.404175 2396.263672 1322.404175 L 2395.151123 1322.404175 C 2386.79248 1322.404175 2379.825684 1317.670654 2376.76709 1307.920288 L 2348.066162 1220.433838 L 2319.090088 1307.920288 C 2316.027588 1317.670654 2309.060547 1322.404175 2300.981201 1322.404175 L 2299.864502 1322.404175 C 2291.51001 1322.404175 2284.542969 1317.670654 2281.197021 1307.361938"></path>
    <path id="path20" fill="#7cc142" stroke="none" d="M 2481.94458 1188.117676 C 2481.94458 1178.646606 2489.190674 1171.121338 2498.661865 1171.121338 C 2508.133057 1171.121338 2515.662598 1178.646606 2515.662598 1188.117676 L 2515.662598 1203.159912 C 2523.45874 1184.771729 2537.946777 1170.842041 2552.713867 1170.842041 C 2563.301758 1170.842041 2569.431152 1177.80896 2569.431152 1187.559326 C 2569.431152 1196.476318 2563.580811 1202.326538 2556.059814 1203.718262 C 2532.096436 1207.897583 2515.662598 1226.285767 2515.662598 1261.111938 L 2515.662598 1304.57605 C 2515.662598 1313.772217 2508.133057 1321.293335 2498.661865 1321.293335 C 2489.474121 1321.293335 2481.94458 1314.047241 2481.94458 1304.57605 Z"></path>
    <path id="path21" fill="#7cc142" stroke="none" d="M 2591.934082 1188.117676 C 2591.934082 1178.646606 2599.176025 1171.121338 2608.651367 1171.121338 C 2618.122559 1171.121338 2625.643555 1178.646606 2625.643555 1188.117676 L 2625.643555 1304.57605 C 2625.643555 1314.047241 2618.122559 1321.293335 2608.651367 1321.293335 C 2599.455078 1321.293335 2591.934082 1314.047241 2591.934082 1304.57605 Z M 2589.421387 1133.232422 C 2589.421387 1123.19873 2597.78418 1116.794312 2608.651367 1116.794312 C 2619.51416 1116.794312 2627.872803 1123.19873 2627.872803 1133.232422 L 2627.872803 1134.90332 C 2627.872803 1144.932861 2619.51416 1151.620605 2608.651367 1151.620605 C 2597.78418 1151.620605 2589.421387 1144.932861 2589.421387 1134.90332 Z"></path>
    <path id="path22" fill="#7cc142" stroke="none" d="M 2669.907227 1279.223877 L 2669.907227 1201.766968 L 2664.332031 1201.766968 C 2656.256836 1201.766968 2649.848145 1195.362549 2649.848145 1187.283081 C 2649.848145 1179.203613 2656.256836 1172.795044 2664.332031 1172.795044 L 2669.907227 1172.795044 L 2669.907227 1147.719238 C 2669.907227 1138.523071 2677.428223 1131.001953 2686.899414 1131.001953 C 2696.095703 1131.001953 2703.616699 1138.523071 2703.616699 1147.719238 L 2703.616699 1172.795044 L 2730.084473 1172.795044 C 2738.163818 1172.795044 2744.851563 1179.203613 2744.851563 1187.283081 C 2744.851563 1195.362549 2738.163818 1201.766968 2730.084473 1201.766968 L 2703.616699 1201.766968 L 2703.616699 1273.927856 C 2703.616699 1287.02417 2710.304443 1292.32019 2721.72998 1292.32019 C 2725.630127 1292.32019 2728.971924 1291.478516 2730.084473 1291.478516 C 2737.609619 1291.478516 2744.297363 1297.612061 2744.297363 1305.412354 C 2744.297363 1311.541748 2740.118164 1316.558594 2735.380371 1318.508667 C 2728.138428 1321.012817 2721.171631 1322.404541 2712.254639 1322.404541 C 2687.461914 1322.404541 2669.907227 1311.541748 2669.907227 1279.223877"></path>
    <path id="path23" fill="#7cc142" stroke="none" d="M 2866.708008 1236.03772 C 2864.47876 1214.307861 2851.661621 1197.311401 2829.373291 1197.311401 C 2808.755859 1197.311401 2794.267822 1213.191162 2791.205322 1236.03772 Z M 2833.277588 1323.244995 C 2790.646973 1323.244995 2757.766602 1292.31897 2757.766602 1246.900635 L 2757.766602 1246.346436 C 2757.766602 1204.27417 2787.580078 1169.727051 2829.652588 1169.727051 C 2876.458252 1169.727051 2899.584229 1208.174316 2899.584229 1242.167114 C 2899.584229 1251.638306 2892.338135 1258.3302 2883.700195 1258.3302 L 2791.484375 1258.3302 C 2795.105469 1282.289429 2812.101807 1295.660767 2833.827637 1295.660767 C 2848.040771 1295.660767 2859.182617 1290.643921 2868.657959 1282.843628 C 2871.166504 1280.897705 2873.391602 1279.781006 2877.295898 1279.781006 C 2884.816895 1279.781006 2890.667236 1285.631226 2890.667236 1293.431519 C 2890.667236 1297.61084 2888.717041 1301.231689 2886.20874 1303.740112 C 2872.837402 1315.719727 2856.120117 1323.244995 2833.277588 1323.244995"></path>
</svg>